<?xml version="1.0" encoding="UTF-8" standalone="no"?><!-- Generator: Gravit.io --><svg xmlns="http://www.w3.org/2000/svg" xmlns:xlink="http://www.w3.org/1999/xlink" style="isolation:isolate" viewBox="0 0 315.5 208.716" width="315.5pt" height="208.716pt"><g style="isolation:isolate"/><path d=" M 217.98 181.969 L 218.053 200.732 L 215.883 200.74 L 215.81 181.977 L 217.98 181.969 L 217.98 181.969 Z  M 222.071 187.473 L 223.798 187.466 L 223.929 189.56 L 223.929 189.56 Q 226.46 187.13 228.828 187.12 L 228.828 187.12 L 228.828 187.12 Q 231.344 187.111 231.871 189.447 L 231.871 189.447 L 231.871 189.447 Q 234.303 187.099 236.696 187.09 L 236.696 187.09 L 236.696 187.09 Q 238.249 187.084 239.079 188.005 L 239.079 188.005 L 239.079 188.005 Q 239.909 188.926 239.916 190.721 L 239.916 190.721 L 239.955 200.647 L 237.883 200.655 L 237.847 191.382 L 237.847 191.382 Q 237.817 190.158 237.384 189.603 L 237.384 189.603 L 237.384 189.603 Q 236.95 189.047 235.963 189.051 L 235.963 189.051 L 235.963 189.051 Q 235.1 189.054 234.3 189.492 L 234.3 189.492 L 234.3 189.492 Q 233.5 189.93 232.025 191.133 L 232.025 191.133 L 232.062 200.677 L 230.04 200.685 L 230.004 191.412 L 230.004 191.412 Q 229.999 190.162 229.54 189.619 L 229.54 189.619 L 229.54 189.619 Q 229.082 189.077 228.12 189.081 L 228.12 189.081 L 228.12 189.081 Q 227.257 189.084 226.457 189.523 L 226.457 189.523 L 226.457 189.523 Q 225.657 189.961 224.182 191.136 L 224.182 191.136 L 224.219 200.708 L 222.123 200.716 L 222.071 187.473 L 222.071 187.473 Z  M 251.346 180.642 L 252.561 182.405 L 247.838 185.714 L 247.119 184.656 L 251.346 180.642 L 251.346 180.642 Z  M 248.756 187.043 L 248.756 187.043 L 248.756 187.043 Q 251.864 187.031 253.14 188.603 L 253.14 188.603 L 253.14 188.603 Q 254.417 190.175 254.431 193.982 L 254.431 193.982 L 254.431 193.982 Q 254.446 197.789 253.182 199.372 L 253.182 199.372 L 253.182 199.372 Q 251.918 200.954 248.81 200.966 L 248.81 200.966 L 248.81 200.966 Q 245.727 200.978 244.439 199.406 L 244.439 199.406 L 244.439 199.406 Q 243.15 197.833 243.135 194.026 L 243.135 194.026 L 243.135 194.026 Q 243.12 190.219 244.397 188.637 L 244.397 188.637 L 244.397 188.637 Q 245.673 187.055 248.756 187.043 Z  M 251.493 190.051 L 251.493 190.051 L 251.493 190.051 Q 250.737 188.993 248.764 189.001 L 248.764 189.001 L 248.764 189.001 Q 246.791 189.008 246.055 190.072 L 246.055 190.072 L 246.055 190.072 Q 245.319 191.135 245.33 194.018 L 245.33 194.018 L 245.33 194.018 Q 245.342 196.9 246.086 197.958 L 246.086 197.958 L 246.086 197.958 Q 246.83 199.016 248.803 199.008 L 248.803 199.008 L 248.803 199.008 Q 250.776 199 251.524 197.937 L 251.524 197.937 L 251.524 197.937 Q 252.272 196.873 252.261 193.991 L 252.261 193.991 L 252.261 193.991 Q 252.25 191.108 251.493 190.051 Z  M 265.998 187.302 L 268.217 187.293 L 263.876 199.983 L 263.876 199.983 Q 263.681 200.554 263.139 200.557 L 263.139 200.557 L 261.24 200.564 L 261.24 200.564 Q 260.697 200.566 260.498 199.996 L 260.498 199.996 L 256.058 187.341 L 258.302 187.332 L 261.298 196.593 L 261.298 196.593 Q 261.548 197.354 262.022 198.902 L 262.022 198.902 L 262.343 198.901 L 263.074 196.586 L 265.998 187.302 L 265.998 187.302 Z  M 277.718 195.007 L 277.718 195.007 L 272.12 195.028 L 272.12 195.028 Q 272.301 197.312 273.143 198.097 L 273.143 198.097 L 273.143 198.097 Q 273.985 198.883 275.933 198.875 L 275.933 198.875 L 275.933 198.875 Q 277.98 198.867 280.1 198.533 L 280.1 198.533 L 280.328 200.082 L 280.328 200.082 Q 278.728 200.822 275.669 200.834 L 275.669 200.834 L 275.669 200.834 Q 272.562 200.846 271.236 199.26 L 271.236 199.26 L 271.236 199.26 Q 269.91 197.675 269.895 193.868 L 269.895 193.868 L 269.895 193.868 Q 269.88 190.033 271.157 188.492 L 271.157 188.492 L 271.157 188.492 Q 272.434 186.951 275.393 186.939 L 275.393 186.939 L 275.393 186.939 Q 278.082 186.929 279.319 187.998 L 279.319 187.998 L 279.319 187.998 Q 280.556 189.067 280.565 191.243 L 280.565 191.243 L 280.565 191.243 Q 280.629 194.995 277.718 195.007 Z  M 272.088 193.234 L 272.088 193.234 L 277.169 193.214 L 277.169 193.214 Q 278.476 193.209 278.468 191.251 L 278.468 191.251 L 278.468 191.251 Q 278.439 189.973 277.771 189.432 L 277.771 189.432 L 277.771 189.432 Q 277.103 188.89 275.499 188.897 L 275.499 188.897 L 275.499 188.897 Q 273.6 188.904 272.864 189.818 L 272.864 189.818 L 272.864 189.818 Q 272.128 190.732 272.088 193.234 Z  M 284.326 181.602 L 284.326 181.602 L 285.312 181.598 L 285.312 181.598 Q 285.953 181.595 285.956 182.302 L 285.956 182.302 L 285.962 183.852 L 285.962 183.852 Q 285.965 184.559 285.324 184.562 L 285.324 184.562 L 284.337 184.566 L 284.337 184.566 Q 283.696 184.568 283.693 183.861 L 283.693 183.861 L 283.687 182.311 L 283.687 182.311 Q 283.684 181.604 284.326 181.602 Z  M 285.877 187.225 L 285.928 200.468 L 283.856 200.476 L 283.805 187.233 L 285.877 187.225 L 285.877 187.225 Z  M 295.329 195.074 L 295.329 195.074 L 291.873 194.217 L 291.873 194.217 Q 290.391 193.842 289.771 193.002 L 289.771 193.002 L 289.771 193.002 Q 289.152 192.161 289.145 190.53 L 289.145 190.53 L 289.145 190.53 Q 289.137 188.327 290.182 187.575 L 290.182 187.575 L 290.182 187.575 Q 291.227 186.823 293.817 186.867 L 293.817 186.867 L 293.817 186.867 Q 296.703 186.911 298.875 187.256 L 298.875 187.256 L 298.709 188.942 L 298.709 188.942 Q 294.959 188.821 294.145 188.824 L 294.145 188.824 L 294.145 188.824 Q 292.32 188.804 291.754 189.078 L 291.754 189.078 L 291.754 189.078 Q 291.188 189.352 291.192 190.522 L 291.192 190.522 L 291.192 190.522 Q 291.196 191.473 291.58 191.825 L 291.58 191.825 L 291.58 191.825 Q 291.963 192.177 292.951 192.418 L 292.951 192.418 L 296.456 193.275 L 296.456 193.275 Q 297.938 193.677 298.595 194.477 L 298.595 194.477 L 298.595 194.477 Q 299.251 195.276 299.258 196.908 L 299.258 196.908 L 299.258 196.908 Q 299.267 199.219 298.11 199.972 L 298.11 199.972 L 298.11 199.972 Q 296.954 200.724 294.142 200.735 L 294.142 200.735 L 294.142 200.735 Q 291.627 200.745 289.43 200.373 L 289.43 200.373 L 289.572 198.686 L 289.572 198.686 Q 291.668 198.814 293.715 198.779 L 293.715 198.779 L 293.715 198.779 Q 295.812 198.771 296.526 198.414 L 296.526 198.414 L 296.526 198.414 Q 297.24 198.058 297.235 196.916 L 297.235 196.916 L 297.235 196.916 Q 297.232 196.018 296.799 195.68 L 296.799 195.68 L 296.799 195.68 Q 296.366 195.342 295.329 195.074 Z  M 190.874 181.802 L 192.97 181.794 L 193.044 200.829 L 191.416 200.836 L 191.212 198.933 L 191.212 198.933 Q 188.926 201.172 186.46 201.181 L 186.46 201.181 L 186.46 201.181 Q 184.24 201.19 183.235 199.467 L 183.235 199.467 L 183.235 199.467 Q 182.229 197.744 182.215 194.209 L 182.215 194.209 L 182.215 194.209 Q 182.201 190.429 183.28 188.861 L 183.28 188.861 L 183.28 188.861 Q 184.359 187.293 186.727 187.284 L 186.727 187.284 L 186.727 187.284 Q 189.07 187.275 190.998 188.491 L 190.998 188.491 L 190.998 188.491 Q 190.895 187.295 190.889 185.881 L 190.889 185.881 L 190.874 181.802 L 190.874 181.802 Z  M 190.934 197.33 L 190.934 197.33 L 190.905 190.015 L 190.905 190.015 Q 188.535 189.29 187.228 189.295 L 187.228 189.295 L 187.228 189.295 Q 185.625 189.301 184.987 190.31 L 184.987 190.31 L 184.987 190.31 Q 184.35 191.318 184.361 194.173 L 184.361 194.173 L 184.361 194.173 Q 184.372 197.029 185.005 198.1 L 185.005 198.1 L 185.005 198.1 Q 185.638 199.172 187.143 199.166 L 187.143 199.166 L 187.143 199.166 Q 188.08 199.163 188.843 198.765 L 188.843 198.765 L 188.843 198.765 Q 189.606 198.368 190.934 197.33 Z  M 204.121 195.293 L 204.121 195.293 L 198.523 195.315 L 198.523 195.315 Q 198.704 197.598 199.546 198.384 L 199.546 198.384 L 199.546 198.384 Q 200.388 199.169 202.336 199.162 L 202.336 199.162 L 202.336 199.162 Q 204.383 199.154 206.503 198.819 L 206.503 198.819 L 206.731 200.368 L 206.731 200.368 Q 205.131 201.109 202.072 201.121 L 202.072 201.121 L 202.072 201.121 Q 198.965 201.133 197.639 199.547 L 197.639 199.547 L 197.639 199.547 Q 196.313 197.961 196.298 194.154 L 196.298 194.154 L 196.298 194.154 Q 196.283 190.32 197.56 188.779 L 197.56 188.779 L 197.56 188.779 Q 198.837 187.237 201.796 187.226 L 201.796 187.226 L 201.796 187.226 Q 204.485 187.215 205.722 188.284 L 205.722 188.284 L 205.722 188.284 Q 206.959 189.354 206.968 191.529 L 206.968 191.529 L 206.968 191.529 Q 207.032 195.282 204.121 195.293 Z  M 198.491 193.52 L 198.491 193.52 L 203.572 193.5 L 203.572 193.5 Q 204.879 193.495 204.871 191.537 L 204.871 191.537 L 204.871 191.537 Q 204.842 190.259 204.174 189.718 L 204.174 189.718 L 204.174 189.718 Q 203.506 189.177 201.903 189.183 L 201.903 189.183 L 201.903 189.183 Q 200.003 189.191 199.267 190.104 L 199.267 190.104 L 199.267 190.104 Q 198.531 191.018 198.491 193.52 Z  M 25.601 201.481 L 23.901 195.614 L 16.897 195.641 L 15.242 201.521 L 12.998 201.53 L 18.403 183.398 L 18.403 183.398 Q 18.548 182.745 19.214 182.742 L 19.214 182.742 L 21.483 182.733 L 21.483 182.733 Q 22.149 182.731 22.3 183.383 L 22.3 183.383 L 27.845 201.472 L 25.601 201.481 L 25.601 201.481 Z  M 17.48 193.572 L 23.301 193.549 L 21.126 186.107 L 21.126 186.107 Q 20.902 185.401 20.701 184.586 L 20.701 184.586 L 20.011 184.588 L 19.597 186.113 L 17.48 193.572 L 17.48 193.572 Z  M 38.106 182.397 L 40.202 182.389 L 40.276 201.424 L 38.648 201.43 L 38.444 199.528 L 38.444 199.528 Q 36.158 201.766 33.692 201.776 L 33.692 201.776 L 33.692 201.776 Q 31.472 201.785 30.467 200.062 L 30.467 200.062 L 30.467 200.062 Q 29.461 198.339 29.447 194.804 L 29.447 194.804 L 29.447 194.804 Q 29.433 191.024 30.512 189.456 L 30.512 189.456 L 30.512 189.456 Q 31.591 187.888 33.959 187.879 L 33.959 187.879 L 33.959 187.879 Q 36.302 187.87 38.23 189.086 L 38.23 189.086 L 38.23 189.086 Q 38.127 187.89 38.121 186.476 L 38.121 186.476 L 38.106 182.397 L 38.106 182.397 Z  M 38.166 197.924 L 38.166 197.924 L 38.138 190.609 L 38.138 190.609 Q 35.767 189.884 34.46 189.889 L 34.46 189.889 L 34.46 189.889 Q 32.857 189.896 32.219 190.904 L 32.219 190.904 L 32.219 190.904 Q 31.582 191.913 31.593 194.768 L 31.593 194.768 L 31.593 194.768 Q 31.604 197.623 32.237 198.695 L 32.237 198.695 L 32.237 198.695 Q 32.87 199.767 34.375 199.761 L 34.375 199.761 L 34.375 199.761 Q 35.312 199.757 36.075 199.36 L 36.075 199.36 L 36.075 199.36 Q 36.838 198.963 38.166 197.924 Z  M 44.097 188.166 L 45.823 188.159 L 45.955 190.252 L 45.955 190.252 Q 48.486 187.822 50.853 187.813 L 50.853 187.813 L 50.853 187.813 Q 53.369 187.803 53.896 190.14 L 53.896 190.14 L 53.896 190.14 Q 56.329 187.792 58.721 187.783 L 58.721 187.783 L 58.721 187.783 Q 60.275 187.776 61.105 188.698 L 61.105 188.698 L 61.105 188.698 Q 61.935 189.619 61.942 191.414 L 61.942 191.414 L 61.98 201.34 L 59.909 201.348 L 59.872 192.075 L 59.872 192.075 Q 59.843 190.851 59.409 190.295 L 59.409 190.295 L 59.409 190.295 Q 58.975 189.739 57.989 189.743 L 57.989 189.743 L 57.989 189.743 Q 57.126 189.747 56.326 190.185 L 56.326 190.185 L 56.326 190.185 Q 55.526 190.623 54.051 191.825 L 54.051 191.825 L 54.088 201.37 L 52.065 201.378 L 52.029 192.105 L 52.029 192.105 Q 52.024 190.854 51.566 190.312 L 51.566 190.312 L 51.566 190.312 Q 51.108 189.77 50.146 189.774 L 50.146 189.774 L 50.146 189.774 Q 49.283 189.777 48.483 190.215 L 48.483 190.215 L 48.483 190.215 Q 47.683 190.654 46.207 191.829 L 46.207 191.829 L 46.245 201.401 L 44.148 201.409 L 44.097 188.166 L 44.097 188.166 Z  M 66.322 182.45 L 66.322 182.45 L 67.308 182.446 L 67.308 182.446 Q 67.949 182.444 67.952 183.151 L 67.952 183.151 L 67.958 184.701 L 67.958 184.701 Q 67.961 185.408 67.32 185.41 L 67.32 185.41 L 66.333 185.414 L 66.333 185.414 Q 65.692 185.417 65.689 184.71 L 65.689 184.71 L 65.683 183.16 L 65.683 183.16 Q 65.68 182.453 66.322 182.45 Z  M 67.873 188.073 L 67.924 201.316 L 65.853 201.324 L 65.801 188.081 L 67.873 188.073 L 67.873 188.073 Z  M 71.819 188.058 L 73.595 188.051 L 73.751 190.144 L 73.751 190.144 Q 76.652 187.713 79.118 187.703 L 79.118 187.703 L 79.118 187.703 Q 82.374 187.69 82.388 191.334 L 82.388 191.334 L 82.427 201.26 L 80.33 201.268 L 80.294 191.995 L 80.294 191.995 Q 80.289 190.69 79.892 190.175 L 79.892 190.175 L 79.892 190.175 Q 79.496 189.66 78.559 189.663 L 78.559 189.663 L 78.559 189.663 Q 77.572 189.667 76.575 190.16 L 76.575 190.16 L 76.575 190.16 Q 75.578 190.654 73.93 191.775 L 73.93 191.775 L 73.967 201.293 L 71.87 201.301 L 71.819 188.058 L 71.819 188.058 Z  M 86.768 182.371 L 86.768 182.371 L 87.755 182.367 L 87.755 182.367 Q 88.396 182.364 88.399 183.071 L 88.399 183.071 L 88.405 184.621 L 88.405 184.621 Q 88.407 185.328 87.766 185.331 L 87.766 185.331 L 86.78 185.335 L 86.78 185.335 Q 86.138 185.337 86.136 184.63 L 86.136 184.63 L 86.129 183.08 L 86.129 183.08 Q 86.127 182.373 86.768 182.371 Z  M 88.319 187.994 L 88.371 201.237 L 86.299 201.245 L 86.247 188.002 L 88.319 187.994 L 88.319 187.994 Z  M 97.771 195.843 L 97.771 195.843 L 94.315 194.986 L 94.315 194.986 Q 92.834 194.611 92.214 193.771 L 92.214 193.771 L 92.214 193.771 Q 91.594 192.93 91.588 191.299 L 91.588 191.299 L 91.588 191.299 Q 91.579 189.096 92.624 188.344 L 92.624 188.344 L 92.624 188.344 Q 93.67 187.592 96.26 187.636 L 96.26 187.636 L 96.26 187.636 Q 99.145 187.68 101.317 188.025 L 101.317 188.025 L 101.151 189.711 L 101.151 189.711 Q 97.402 189.59 96.588 189.593 L 96.588 189.593 L 96.588 189.593 Q 94.763 189.573 94.196 189.847 L 94.196 189.847 L 94.196 189.847 Q 93.63 190.121 93.635 191.291 L 93.635 191.291 L 93.635 191.291 Q 93.638 192.242 94.022 192.594 L 94.022 192.594 L 94.022 192.594 Q 94.406 192.946 95.393 193.187 L 95.393 193.187 L 98.899 194.044 L 98.899 194.044 Q 100.38 194.446 101.037 195.246 L 101.037 195.246 L 101.037 195.246 Q 101.694 196.045 101.7 197.677 L 101.7 197.677 L 101.7 197.677 Q 101.709 199.988 100.553 200.741 L 100.553 200.741 L 100.553 200.741 Q 99.397 201.493 96.585 201.504 L 96.585 201.504 L 96.585 201.504 Q 94.069 201.514 91.873 201.142 L 91.873 201.142 L 92.014 199.455 L 92.014 199.455 Q 94.111 199.583 96.158 199.548 L 96.158 199.548 L 96.158 199.548 Q 98.254 199.54 98.968 199.183 L 98.968 199.183 L 98.968 199.183 Q 99.682 198.827 99.678 197.685 L 99.678 197.685 L 99.678 197.685 Q 99.674 196.787 99.241 196.449 L 99.241 196.449 L 99.241 196.449 Q 98.808 196.111 97.771 195.843 Z  M 111.634 189.725 L 107.811 189.74 L 107.841 197.517 L 107.841 197.517 Q 107.845 198.469 108.216 198.875 L 108.216 198.875 L 108.216 198.875 Q 108.588 199.282 109.476 199.278 L 109.476 199.278 L 111.301 199.271 L 111.554 201.038 L 111.554 201.038 Q 110.421 201.396 108.843 201.402 L 108.843 201.402 L 108.843 201.402 Q 107.338 201.408 106.545 200.486 L 106.545 200.486 L 106.545 200.486 Q 105.752 199.565 105.746 197.824 L 105.746 197.824 L 105.714 189.748 L 103.544 189.756 L 103.537 188.07 L 105.707 187.953 L 105.692 184.01 L 107.788 184.002 L 107.804 187.918 L 111.626 187.903 L 111.634 189.725 L 111.634 189.725 Z  M 121.17 187.539 L 121.713 187.537 L 121.474 189.714 L 120.784 189.716 L 120.784 189.716 Q 119.871 189.72 118.899 190.118 L 118.899 190.118 L 118.899 190.118 Q 117.926 190.516 116.302 191.42 L 116.302 191.42 L 116.339 201.128 L 114.243 201.136 L 114.191 187.893 L 115.819 187.887 L 116.049 189.98 L 116.049 189.98 Q 118.827 187.549 121.17 187.539 L 121.17 187.539 L 121.17 187.539 Z  M 124.163 189.839 L 124.163 189.839 L 123.959 188.127 L 123.959 188.127 Q 127.262 187.516 129.753 187.506 L 129.753 187.506 L 129.753 187.506 Q 131.85 187.498 132.864 188.459 L 132.864 188.459 L 132.864 188.459 Q 133.879 189.421 133.888 191.732 L 133.888 191.732 L 133.925 201.059 L 132.272 201.066 L 132.017 198.891 L 132.017 198.891 Q 131.158 199.847 129.866 200.586 L 129.866 200.586 L 129.866 200.586 Q 128.574 201.325 127.069 201.331 L 127.069 201.331 L 127.069 201.331 Q 125.417 201.337 124.439 200.376 L 124.439 200.376 L 124.439 200.376 Q 123.461 199.414 123.454 197.647 L 123.454 197.647 L 123.448 196.205 L 123.448 196.205 Q 123.442 194.655 124.314 193.795 L 124.314 193.795 L 124.314 193.795 Q 125.187 192.935 126.765 192.929 L 126.765 192.929 L 131.772 192.91 L 131.767 191.74 L 131.767 191.74 Q 131.763 190.49 131.243 189.975 L 131.243 189.975 L 131.243 189.975 Q 130.723 189.46 129.317 189.466 L 129.317 189.466 L 129.317 189.466 Q 127.541 189.473 124.163 189.839 Z  M 125.595 196.523 L 125.595 196.523 L 125.599 197.366 L 125.599 197.366 Q 125.603 198.4 126.048 198.874 L 126.048 198.874 L 126.048 198.874 Q 126.494 199.348 127.481 199.344 L 127.481 199.344 L 127.481 199.344 Q 128.418 199.368 129.612 198.846 L 129.612 198.846 L 129.612 198.846 Q 130.806 198.325 131.789 197.342 L 131.789 197.342 L 131.779 194.677 L 127.142 194.695 L 127.142 194.695 Q 126.304 194.726 125.948 195.189 L 125.948 195.189 L 125.948 195.189 Q 125.592 195.653 125.595 196.523 Z  M 146.669 199.106 L 146.669 199.106 L 146.897 200.655 L 146.897 200.655 Q 145.123 201.342 142.78 201.351 L 142.78 201.351 L 142.78 201.351 Q 139.673 201.363 138.372 199.805 L 138.372 199.805 L 138.372 199.805 Q 137.071 198.246 137.056 194.412 L 137.056 194.412 L 137.056 194.412 Q 137.041 190.578 138.33 189.023 L 138.33 189.023 L 138.33 189.023 Q 139.619 187.468 142.751 187.455 L 142.751 187.455 L 142.751 187.455 Q 145.119 187.446 146.626 188.066 L 146.626 188.066 L 146.36 189.562 L 146.36 189.562 Q 144.732 189.406 143.104 189.412 L 143.104 189.412 L 143.104 189.412 Q 140.933 189.42 140.099 190.484 L 140.099 190.484 L 140.099 190.484 Q 139.265 191.548 139.276 194.403 L 139.276 194.403 L 139.276 194.403 Q 139.287 197.286 140.13 198.343 L 140.13 198.343 L 140.13 198.343 Q 140.972 199.4 143.143 199.392 L 143.143 199.392 L 143.143 199.392 Q 145.116 199.384 146.669 199.106 Z  M 141.334 203.614 L 141.334 203.614 L 141.552 202.525 L 141.552 202.525 Q 143.056 202.356 143.698 202.735 L 143.698 202.735 L 143.698 202.735 Q 144.341 203.113 144.321 204.282 L 144.321 204.282 L 144.321 204.282 Q 144.278 205.996 143.123 206.925 L 143.123 206.925 L 143.123 206.925 Q 141.967 207.854 140.19 207.589 L 140.19 207.589 L 140.531 206.364 L 140.531 206.364 Q 141.517 206.387 142.144 205.854 L 142.144 205.854 L 142.144 205.854 Q 142.771 205.322 142.793 204.479 L 142.793 204.479 L 142.793 204.479 Q 142.815 203.989 142.519 203.813 L 142.519 203.813 L 142.519 203.813 Q 142.222 203.638 141.334 203.614 Z  M 151.473 185.056 L 151.473 185.056 L 150.486 185.059 L 150.486 185.059 Q 150.332 183.51 150.884 182.692 L 150.884 182.692 L 150.884 182.692 Q 151.436 181.874 152.398 181.952 L 152.398 181.952 L 152.398 181.952 Q 153.187 182.03 154.312 182.706 L 154.312 182.706 L 154.312 182.706 Q 155.437 183.381 156.079 183.46 L 156.079 183.46 L 156.079 183.46 Q 156.77 183.539 157.027 183.212 L 157.027 183.212 L 157.027 183.212 Q 157.285 182.885 157.282 182.069 L 157.282 182.069 L 158.268 182.065 L 158.268 182.065 Q 158.422 183.56 157.883 184.378 L 157.883 184.378 L 157.883 184.378 Q 157.343 185.196 156.357 185.118 L 156.357 185.118 L 156.357 185.118 Q 155.444 185.04 154.294 184.351 L 154.294 184.351 L 154.294 184.351 Q 153.144 183.662 152.626 183.583 L 152.626 183.583 L 152.626 183.583 Q 151.96 183.504 151.715 183.858 L 151.715 183.858 L 151.715 183.858 Q 151.469 184.213 151.473 185.056 Z  M 149.764 189.74 L 149.764 189.74 L 149.56 188.027 L 149.56 188.027 Q 152.863 187.416 155.354 187.406 L 155.354 187.406 L 155.354 187.406 Q 157.451 187.398 158.466 188.36 L 158.466 188.36 L 158.466 188.36 Q 159.481 189.321 159.49 191.633 L 159.49 191.633 L 159.526 200.96 L 157.873 200.966 L 157.618 198.792 L 157.618 198.792 Q 156.759 199.747 155.467 200.486 L 155.467 200.486 L 155.467 200.486 Q 154.175 201.225 152.67 201.231 L 152.67 201.231 L 152.67 201.231 Q 151.018 201.238 150.04 200.276 L 150.04 200.276 L 150.04 200.276 Q 149.062 199.315 149.055 197.547 L 149.055 197.547 L 149.049 196.106 L 149.049 196.106 Q 149.043 194.556 149.916 193.696 L 149.916 193.696 L 149.916 193.696 Q 150.788 192.836 152.366 192.83 L 152.366 192.83 L 157.373 192.81 L 157.368 191.641 L 157.368 191.641 Q 157.364 190.39 156.844 189.875 L 156.844 189.875 L 156.844 189.875 Q 156.324 189.361 154.918 189.366 L 154.918 189.366 L 154.918 189.366 Q 153.142 189.373 149.764 189.74 Z  M 151.196 196.424 L 151.196 196.424 L 151.2 197.267 L 151.2 197.267 Q 151.204 198.3 151.649 198.774 L 151.649 198.774 L 151.649 198.774 Q 152.095 199.248 153.082 199.245 L 153.082 199.245 L 153.082 199.245 Q 154.019 199.268 155.213 198.747 L 155.213 198.747 L 155.213 198.747 Q 156.408 198.225 157.39 197.243 L 157.39 197.243 L 157.38 194.578 L 152.743 194.596 L 152.743 194.596 Q 151.905 194.626 151.549 195.09 L 151.549 195.09 L 151.549 195.09 Q 151.193 195.554 151.196 196.424 Z  M 168.303 187.356 L 168.303 187.356 L 168.303 187.356 Q 171.41 187.344 172.687 188.916 L 172.687 188.916 L 172.687 188.916 Q 173.963 190.488 173.978 194.295 L 173.978 194.295 L 173.978 194.295 Q 173.993 198.103 172.729 199.685 L 172.729 199.685 L 172.729 199.685 Q 171.465 201.267 168.357 201.279 L 168.357 201.279 L 168.357 201.279 Q 165.274 201.291 163.985 199.719 L 163.985 199.719 L 163.985 199.719 Q 162.697 198.147 162.682 194.339 L 162.682 194.339 L 162.682 194.339 Q 162.667 190.532 163.943 188.95 L 163.943 188.95 L 163.943 188.95 Q 165.22 187.368 168.303 187.356 Z  M 171.04 190.364 L 171.04 190.364 L 171.04 190.364 Q 170.283 189.306 168.31 189.314 L 168.31 189.314 L 168.31 189.314 Q 166.337 189.322 165.601 190.385 L 165.601 190.385 L 165.601 190.385 Q 164.866 191.448 164.877 194.331 L 164.877 194.331 L 164.877 194.331 Q 164.888 197.213 165.632 198.271 L 165.632 198.271 L 165.632 198.271 Q 166.376 199.329 168.349 199.321 L 168.349 199.321 L 168.349 199.321 Q 170.322 199.313 171.071 198.25 L 171.071 198.25 L 171.071 198.25 Q 171.819 197.186 171.807 194.304 L 171.807 194.304 L 171.807 194.304 Q 171.796 191.421 171.04 190.364 Z " fill="rgb(0,0,0)"/><path d=" M 109.524 136.336 L 109.524 136.336 L 109.524 136.336 Q 109.524 139.502 108.149 142.236 L 108.149 142.236 L 108.149 142.236 Q 105.628 147.345 99.288 149.36 L 99.288 149.36 L 99.288 149.36 Q 97.073 150.08 95.468 150.08 L 95.468 150.08 L 95.468 150.08 Q 90.732 150.08 87.295 148.425 L 87.295 148.425 L 87.295 147.705 L 87.295 147.705 Q 92.871 148.856 97.607 146.554 L 97.607 146.554 L 97.607 146.554 Q 101.809 144.539 103.336 139.934 L 103.336 139.934 L 103.336 139.934 Q 103.795 138.495 103.795 137.199 L 103.795 137.199 L 103.795 137.199 Q 103.795 135.904 103.795 135.616 L 103.795 135.616 L 103.795 135.616 Q 103.642 130.579 100.968 127.593 L 100.968 127.593 L 100.968 127.593 Q 98.295 124.607 93.482 124.607 L 93.482 124.607 L 84.698 124.607 L 84.698 167.565 L 84.698 167.565 Q 84.774 169.436 86.187 170.767 L 86.187 170.767 L 86.187 170.767 Q 87.6 172.098 89.587 172.098 L 89.587 172.098 L 90.58 172.098 L 90.58 172.818 L 73.851 172.818 L 73.851 172.098 L 74.844 172.098 L 74.844 172.098 Q 76.83 172.098 78.243 170.767 L 78.243 170.767 L 78.243 170.767 Q 79.656 169.436 79.733 167.565 L 79.733 167.565 L 79.733 127.341 L 79.733 127.341 Q 79.503 125.542 78.128 124.355 L 78.128 124.355 L 78.128 124.355 Q 76.753 123.168 74.844 123.168 L 74.844 123.168 L 73.927 123.168 L 73.851 122.448 L 93.788 122.448 L 93.788 122.448 Q 101.121 122.448 105.322 126.154 L 105.322 126.154 L 105.322 126.154 Q 109.524 129.86 109.524 136.336 Z  M 162.613 172.098 L 162.613 172.098 L 163.224 172.098 L 163.224 172.818 L 146.037 172.818 L 146.037 172.098 L 146.725 172.098 L 146.725 172.098 Q 148.329 172.098 149.131 171.127 L 149.131 171.127 L 149.131 171.127 Q 149.933 170.155 149.933 169.292 L 149.933 169.292 L 149.933 169.292 Q 149.933 168.428 149.627 167.565 L 149.627 167.565 L 144.739 155.332 L 124.114 155.332 L 118.996 167.637 L 118.996 167.637 Q 118.69 168.5 118.69 169.328 L 118.69 169.328 L 118.69 169.328 Q 118.69 170.155 119.492 171.127 L 119.492 171.127 L 119.492 171.127 Q 120.294 172.098 121.899 172.098 L 121.899 172.098 L 122.586 172.098 L 122.586 172.818 L 107.232 172.818 L 107.232 172.098 L 107.92 172.098 L 107.92 172.098 Q 109.829 172.098 111.663 170.947 L 111.663 170.947 L 111.663 170.947 Q 113.496 169.796 114.642 167.565 L 114.642 167.565 L 131.905 128.852 L 131.905 128.852 Q 134.732 123.024 134.732 121.441 L 134.732 121.441 L 135.419 121.441 L 155.891 167.565 L 155.891 167.565 Q 156.961 169.796 158.794 170.947 L 158.794 170.947 L 158.794 170.947 Q 160.627 172.098 162.613 172.098 Z  M 134.655 130.076 L 125.031 153.174 L 143.822 153.174 L 134.655 130.076 L 134.655 130.076 Z  M 231.133 172.098 L 231.133 172.098 L 232.355 172.098 L 232.355 172.818 L 215.779 172.818 L 215.779 172.17 L 216.925 172.17 L 216.925 172.17 Q 218.224 172.17 219.14 171.199 L 219.14 171.199 L 219.14 171.199 Q 220.057 170.227 219.904 169.076 L 219.904 169.076 L 216.467 132.882 L 200.425 166.486 L 200.425 166.486 Q 198.286 170.875 197.828 173.825 L 197.828 173.825 L 197.064 173.825 L 177.509 133.889 L 174.224 169.076 L 174.224 169.076 Q 174.072 170.227 174.988 171.199 L 174.988 171.199 L 174.988 171.199 Q 175.905 172.17 177.127 172.17 L 177.127 172.17 L 178.349 172.17 L 178.349 172.818 L 163.53 172.818 L 163.53 172.098 L 164.752 172.098 L 164.752 172.098 Q 166.891 172.098 168.457 170.875 L 168.457 170.875 L 168.457 170.875 Q 170.023 169.652 170.329 167.565 L 170.329 167.565 L 176.058 121.441 L 176.822 121.441 L 198.134 164.831 L 218.988 121.441 L 219.675 121.441 L 225.557 167.565 L 225.557 167.565 Q 225.939 170.443 228.612 171.594 L 228.612 171.594 L 228.612 171.594 Q 229.758 172.098 231.133 172.098 Z " fill="rgb(1,35,63)"/><path d=" M 13.5 169 L 31.824 168.5 L 31.824 57.5 L 66 57.5 L 66 27 L 84.5 27 L 84.5 92 L 113 92 L 113 66.5 L 152 66.5 L 152 112 L 170.5 112 L 170.5 38 L 203 13.5 L 259.5 53.5 L 259.5 136 L 282.5 136 L 282.5 168.5 L 302 169" fill="none" vector-effect="non-scaling-stroke" stroke-width="9" stroke="rgb(154,6,6)" stroke-linejoin="miter" stroke-linecap="square" stroke-miterlimit="3"/></svg>